Coordinates
version=1
nRows=19
nColumns=24
inDegrees=yes

Units are S.I. units (second, meters, Newtons, ...)
If the header above contains a line with 'inDegrees', this indicates whether rotational values are in degrees (yes) or radians (no).

endheader
time	pelvis_tilt	pelvis_list	pelvis_rotation	pelvis_tx	pelvis_ty	pelvis_tz	lumbar_extension	lumbar_bending	lumbar_rotation	arm_flex_r	arm_add_r	arm_rot_r	elbow_flex_r	pro_sup_r	wrist_flex_r	wrist_dev_r	arm_flex_l	arm_add_l	arm_rot_l	elbow_flex_l	pro_sup_l	wrist_flex_l	wrist_dev_l
     20.48000000	    -11.20464801	      0.95575627	     -4.10123352	      1.22861976	      0.87307622	      0.15583329	     -5.55959555	      3.81653075	      0.29963616	      3.45258198	    -22.55958283	     21.02016955	     45.50454462	     66.98096543	    -24.93496468	    -19.44374019	     13.50129056	    -18.64774702	     34.71207724	    118.21372779	     69.63440906	    -16.08195957	    -12.08464175
     20.48400000	    -11.18778814	      0.94879579	     -4.09685142	      1.22864953	      0.87291230	      0.15584537	     -5.54295861	      3.81034964	      0.30447898	      3.44753574	    -22.55089235	     21.02311813	     45.49515976	     66.97986740	    -24.93714962	    -19.44632859	     13.53512571	    -18.61752245	     34.71298662	    118.29640273	     69.64535014	    -16.07556025	    -12.09251896
     20.48800000	    -11.21118639	      0.94889005	     -4.07490907	      1.22839904	      0.87301135	      0.15584926	     -5.56762127	      3.80655254	      0.32434313	      3.45321961	    -22.56270479	     21.01715899	     45.48177846	     66.97713969	    -24.94162204	    -19.45102255	     13.51825508	    -18.61989852	     34.74707531	    118.40031770	     69.65561289	    -16.06758234	    -12.10071260
     20.49200000	    -11.22208164	      0.92036845	     -4.08096758	      1.22813288	      0.87290622	      0.15649263	     -5.57809496	      3.77535317	      0.31069286	      3.48888760	    -22.46370147	     21.01353352	     45.51147490	     66.96265772	    -24.98575296	    -19.52465213	     13.59915361	    -18.85399031	     34.75971945	    118.74824735	     69.49023772	    -16.07874354	    -11.98191201
     20.49600000	    -11.22065744	      0.92086591	     -4.08193582	      1.22819117	      0.87299369	      0.15650255	     -5.57594295	      3.77602072	      0.30989715	      3.48949039	    -22.46395872	     21.01321776	     45.51114705	     66.96258109	    -24.98585814	    -19.52475348	     13.60143665	    -18.85324427	     34.75940095	    118.74937874	     69.48991484	    -16.07865033	    -11.98177647
     20.50000000	    -11.18984984	      0.92075448	     -4.10454139	      1.22843611	      0.87283532	      0.15650089	     -5.54419672	      3.78039686	      0.28986313	      3.48720395	    -22.46222905	     21.01276542	     45.50340680	     66.96153408	    -24.98691820	    -19.52554366	     13.64244169	    -18.83567920	     34.75669635	    118.76580013	     69.48987933	    -16.07672990	    -11.98121685
     20.50400000	    -11.17303821	      0.91717391	     -4.11420908	      1.22861721	      0.87285673	      0.15650947	     -5.52587955	      3.77900498	      0.28127138	      3.47929498	    -22.46331083	     21.01516816	     45.49371408	     66.96061840	    -24.98751254	    -19.52568298	     13.67444966	    -18.82403938	     34.75779537	    118.78240060	     69.49070906	    -16.07493695	    -11.98086806
     20.50800000	    -11.17102874	      0.91726978	     -4.11340442	      1.22864807	      0.87291946	      0.15650906	     -5.52342136	      3.77917670	      0.28227277	      3.47938131	    -22.46363037	     21.01539392	     45.49292469	     66.96054526	    -24.98754393	    -19.52570357	     13.67726569	    -18.82333766	     34.75824734	    118.78484913	     69.49083907	    -16.07470454	    -11.98087765
     20.51200000	    -11.15306843	      0.90825257	     -4.07462008	      1.22880043	      0.87278623	      0.15650880	     -5.50524091	      3.76777922	      0.32131652	      3.43019160	    -22.48539542	     21.04421268	     45.42464393	     66.95462742	    -24.98955575	    -19.52587415	     13.77917550	    -18.81126541	     34.85893772	    118.89882680	     69.49343173	    -16.05701348	    -11.97132762
     20.51600000	    -11.13454844	      0.91005175	     -4.08736830	      1.22895753	      0.87279219	      0.15649109	     -5.48577810	      3.77223178	      0.31041235	      3.43219950	    -22.48504050	     21.04506968	     45.42455908	     66.95425757	    -24.99009147	    -19.52740128	     13.80409427	    -18.81548607	     34.87053649	    118.90561858	     69.49224461	    -16.05503620	    -11.96879953
     20.52000000	    -11.13127436	      0.91007847	     -4.08689158	      1.22897033	      0.87288059	      0.15649027	     -5.48202863	      3.77245235	      0.31116902	      3.43226743	    -22.48622611	     21.04538060	     45.42364820	     66.95414148	    -24.99017120	    -19.52758731	     13.80843912	    -18.81623266	     34.87313654	    118.90956917	     69.49209277	    -16.05455683	    -11.96847991
     20.52400000	    -11.11806470	      0.87705135	     -4.03262896	      1.22895545	      0.87274395	      0.15695801	     -5.46791224	      3.73344843	      0.36004410	      3.36527018	    -22.48381369	     21.14856986	     45.41929143	     66.94416512	    -24.99474195	    -19.55864410	     14.04127769	    -19.01898925	     35.20937650	    119.06265543	     69.38813585	    -16.04029231	    -11.86969482
     20.52800000	    -11.11514442	      0.87621488	     -4.03037875	      1.22890155	      0.87292872	      0.15693432	     -5.46441145	      3.73268751	      0.36257076	      3.36627856	    -22.48487929	     21.14828541	     45.41918370	     66.94404971	    -24.99481751	    -19.55873226	     14.04177397	    -19.01889465	     35.20940787	    119.06582714	     69.38774627	    -16.04035514	    -11.86961093
     20.53200000	    -11.24443026	      0.82299529	     -3.95126529	      1.22664343	      0.87296295	      0.15777948	     -5.60310350	      3.65895842	      0.42014946	      3.63231351	    -22.34778884	     21.17967116	     45.32159274	     66.64465364	    -25.14391945	    -19.75030476	     14.57403678	    -19.24919889	     35.44796235	    119.52542230	     67.76554708	    -16.46020210	    -10.82884366
     20.53600000	    -11.22882279	      0.82278214	     -3.95156163	      1.22674283	      0.87293051	      0.15769171	     -5.58713608	      3.66023184	      0.42154254	      3.63152178	    -22.35873767	     21.17715124	     45.31892263	     66.64422804	    -25.14386419	    -19.75148799	     14.59519103	    -19.24742026	     35.43124052	    119.54666211	     67.76664154	    -16.45924750	    -10.83054502
     20.54000000	    -11.22032754	      0.82647724	     -3.96139470	      1.22678646	      0.87292848	      0.15757726	     -5.57858187	      3.66592932	      0.41346315	      3.62596128	    -22.36442912	     21.17109942	     45.31717619	     66.64397065	    -25.14354007	    -19.75278204	     14.61587116	    -19.23919762	     35.41952871	    119.57819337	     67.76807301	    -16.45684739	    -10.83202417
     20.54400000	    -11.21932767	      0.82474983	     -3.96290541	      1.22673206	      0.87305970	      0.15757451	     -5.57713094	      3.66442716	      0.41188888	      3.62505671	    -22.36583895	     21.17013603	     45.31743949	     66.64400194	    -25.14349326	    -19.75291231	     14.61685345	    -19.23868028	     35.41906353	    119.58075891	     67.76815516	    -16.45664460	    -10.83212650
     20.54800000	    -11.23418305	      0.82865258	     -3.95670424	      1.22661028	      0.87295265	      0.15745443	     -5.59357114	      3.66712673	      0.41795331	      3.61409333	    -22.40336136	     21.12433949	     45.35044382	     66.65039484	    -25.13344391	    -19.76209267	     14.64948896	    -19.21474996	     35.41202541	    119.75777120	     67.76902625	    -16.44018789	    -10.83496021
     20.55200000	    -11.22385434	      0.83206032	     -3.95294441	      1.22671412	      0.87296221	      0.15741497	     -5.58293467	      3.67103974	      0.42305616	      3.62443055	    -22.40061252	     21.12183239	     45.35751066	     66.65122310	    -25.13269451	    -19.76321640	     14.65318087	    -19.21299255	     35.41370513	    119.76731782	     67.76842837	    -16.43883549	    -10.83432396
